<svg width="124" height="150" viewBox="0 0 124 150" fill="none" xmlns="http://www.w3.org/2000/svg">
<g filter="url(#filter0_d_651_3821)">
<rect x="7" y="31" width="110" height="96" rx="8" fill="#FAFCFB" shape-rendering="crispEdges"/>
<path d="M31.0499 39.8C31.109 39.7993 31.1676 39.8108 31.2221 39.8337C31.2766 39.8567 31.3258 39.8905 31.3667 39.9332C31.4094 39.9741 31.4432 40.0233 31.4661 40.0778C31.489 40.1323 31.5005 40.1909 31.4999 40.25C31.5005 40.3091 31.489 40.3677 31.4661 40.4222C31.4432 40.4767 31.4094 40.5259 31.3667 40.5668C31.3258 40.6095 31.2766 40.6433 31.2221 40.6663C31.1676 40.6892 31.109 40.7007 31.0499 40.7H29.6999V53.3H31.0499C31.109 53.2993 31.1676 53.3108 31.2221 53.3337C31.2766 53.3567 31.3258 53.3905 31.3667 53.4332C31.4094 53.4741 31.4432 53.5233 31.4661 53.5778C31.489 53.6323 31.5005 53.6909 31.4999 53.75C31.5005 53.8091 31.489 53.8677 31.4661 53.9222C31.4432 53.9767 31.4094 54.0259 31.3667 54.0668C31.3258 54.1095 31.2766 54.1433 31.2221 54.1663C31.1676 54.1892 31.109 54.2007 31.0499 54.2H27.4499C27.3908 54.2007 27.3321 54.1892 27.2777 54.1663C27.2232 54.1433 27.1739 54.1095 27.1331 54.0668C27.0904 54.0259 27.0565 53.9767 27.0336 53.9222C27.0107 53.8677 26.9992 53.8091 26.9999 53.75C26.9992 53.6909 27.0107 53.6323 27.0336 53.5778C27.0565 53.5233 27.0904 53.4741 27.1331 53.4332C27.1739 53.3905 27.2232 53.3567 27.2777 53.3337C27.3321 53.3108 27.3908 53.2993 27.4499 53.3H28.7999V40.7H27.4499C27.3908 40.7007 27.3321 40.6892 27.2777 40.6663C27.2232 40.6433 27.1739 40.6095 27.1331 40.5668C27.0904 40.5259 27.0565 40.4767 27.0336 40.4222C27.0107 40.3677 26.9992 40.3091 26.9999 40.25C26.9992 40.1909 27.0107 40.1323 27.0336 40.0778C27.0565 40.0233 27.0904 39.9741 27.1331 39.9332C27.1739 39.8905 27.2232 39.8567 27.2777 39.8337C27.3321 39.8108 27.3908 39.7993 27.4499 39.8H31.0499ZM27.8999 42.5H22.4999C22.2515 42.5 22.0196 42.5468 21.8042 42.6404C21.5896 42.7326 21.394 42.8639 21.2273 43.0274C21.061 43.1891 20.9293 43.3829 20.8403 43.5971C20.7515 43.8131 20.7047 44.0474 20.6999 44.3V49.7C20.6999 49.9484 20.7467 50.1803 20.8403 50.3957C20.9345 50.6117 21.0635 50.804 21.2273 50.9726C21.3911 51.1412 21.581 51.2702 21.797 51.3596C22.013 51.449 22.2473 51.4958 22.4999 51.5H27.8999V52.4H22.4999C22.1249 52.4 21.7757 52.3298 21.4523 52.1894C21.1329 52.0522 20.842 51.8565 20.5946 51.6125C20.3407 51.3632 20.1396 51.0655 20.003 50.7369C19.8665 50.4084 19.7974 50.0558 19.7999 49.7V44.3C19.7999 43.9298 19.8701 43.5806 20.0105 43.2524C20.1457 42.932 20.3416 42.6408 20.5874 42.3947C20.831 42.1511 21.1169 41.9564 21.4451 41.8106C21.7733 41.6654 22.1249 41.5952 22.4999 41.6H27.8999V42.5ZM31.4999 41.6C31.8707 41.6 32.2199 41.6702 32.5475 41.8106C33.198 42.0843 33.7156 42.6018 33.9893 43.2524C34.1345 43.5848 34.2047 43.934 34.1999 44.3V49.7C34.1999 50.075 34.1297 50.4242 33.9893 50.7476C33.8483 51.0716 33.656 51.3575 33.4124 51.6053C33.1688 51.8537 32.8808 52.0484 32.5484 52.1894C32.2164 52.3288 31.8599 52.4004 31.4999 52.4H30.5999V51.5H31.4999C31.7483 51.5 31.9802 51.4532 32.1956 51.3596C32.4101 51.2674 32.6057 51.1361 32.7725 50.9726C32.9388 50.8109 33.0704 50.6171 33.1595 50.4029C33.2483 50.1869 33.2951 49.9526 33.2999 49.7V44.3C33.3022 44.0608 33.2544 43.8238 33.1595 43.6043C33.0672 43.3897 32.936 43.1941 32.7725 43.0274C32.6108 42.8611 32.4169 42.7294 32.2028 42.6404C31.9868 42.5516 31.7525 42.5048 31.4999 42.5H30.5999V41.6H31.4999ZM24.7499 43.4C24.836 43.4001 24.9203 43.4249 24.9927 43.4715C25.0651 43.5181 25.1226 43.5845 25.1585 43.6628L27.6335 49.0628C27.6616 49.1169 27.6784 49.1762 27.683 49.237C27.6875 49.2978 27.6796 49.3589 27.6598 49.4166C27.64 49.4742 27.6087 49.5273 27.5677 49.5725C27.5268 49.6177 27.4771 49.6541 27.4216 49.6795C27.3662 49.7049 27.3062 49.7187 27.2452 49.7202C27.1842 49.7217 27.1236 49.7108 27.067 49.6882C27.0104 49.6655 26.959 49.6316 26.9159 49.5884C26.8728 49.5453 26.8389 49.4938 26.8163 49.4372L26.1107 47.8982L26.0999 47.9H23.3999L23.3882 47.8982L22.6835 49.4372C22.6609 49.4938 22.627 49.5453 22.5839 49.5884C22.5408 49.6316 22.4894 49.6655 22.4327 49.6882C22.3761 49.7108 22.3155 49.7217 22.2545 49.7202C22.1936 49.7187 22.1335 49.7049 22.0781 49.6795C22.0227 49.6541 21.973 49.6177 21.932 49.5725C21.8911 49.5273 21.8598 49.4742 21.8399 49.4166C21.8201 49.3589 21.8122 49.2978 21.8168 49.237C21.8213 49.1762 21.8381 49.1169 21.8663 49.0628L24.3413 43.6628L24.3719 43.6061C24.4126 43.5429 24.4686 43.4909 24.5346 43.4549C24.6007 43.4189 24.6747 43.4 24.7499 43.4ZM23.8004 47H25.6994L24.7499 44.9282L23.8004 47Z" fill="black" stroke="black" stroke-width="0.5"/>
<path d="M45.116 51V42.6H47.852C48.396 42.6 48.876 42.708 49.292 42.924C49.716 43.14 50.044 43.44 50.276 43.824C50.516 44.208 50.636 44.648 50.636 45.144C50.636 45.64 50.508 46.08 50.252 46.464C49.996 46.848 49.648 47.152 49.208 47.376C48.768 47.592 48.272 47.7 47.72 47.7H46.136V51H45.116ZM49.856 51L47.84 47.556L48.644 47.028L50.972 51H49.856ZM46.136 46.764H47.996C48.3 46.764 48.572 46.696 48.812 46.56C49.052 46.416 49.244 46.224 49.388 45.984C49.54 45.736 49.616 45.456 49.616 45.144C49.616 44.664 49.448 44.276 49.112 43.98C48.784 43.676 48.356 43.524 47.828 43.524H46.136V46.764ZM52.4117 51V45H53.3717V51H52.4117ZM52.9037 43.608C52.7437 43.608 52.6037 43.548 52.4837 43.428C52.3637 43.308 52.3037 43.168 52.3037 43.008C52.3037 42.84 52.3637 42.7 52.4837 42.588C52.6037 42.468 52.7437 42.408 52.9037 42.408C53.0717 42.408 53.2117 42.468 53.3237 42.588C53.4437 42.7 53.5037 42.84 53.5037 43.008C53.5037 43.168 53.4437 43.308 53.3237 43.428C53.2117 43.548 53.0717 43.608 52.9037 43.608ZM55.1408 51V45H56.0408L56.1008 46.104V51H55.1408ZM59.3528 51V47.928H60.3128V51H59.3528ZM59.3528 47.928C59.3528 47.336 59.2848 46.884 59.1488 46.572C59.0128 46.26 58.8248 46.048 58.5848 45.936C58.3448 45.816 58.0728 45.756 57.7688 45.756C57.2408 45.756 56.8288 45.944 56.5328 46.32C56.2448 46.688 56.1008 47.212 56.1008 47.892H55.6328C55.6328 47.26 55.7248 46.716 55.9088 46.26C56.0928 45.804 56.3608 45.456 56.7128 45.216C57.0648 44.976 57.4888 44.856 57.9848 44.856C58.4568 44.856 58.8648 44.952 59.2088 45.144C59.5608 45.328 59.8328 45.624 60.0248 46.032C60.2248 46.44 60.3208 46.976 60.3128 47.64V47.928H59.3528ZM64.4842 51.144C63.9002 51.144 63.3802 51.012 62.9242 50.748C62.4762 50.476 62.1242 50.104 61.8682 49.632C61.6122 49.16 61.4842 48.616 61.4842 48C61.4842 47.384 61.6082 46.84 61.8562 46.368C62.1122 45.896 62.4642 45.528 62.9122 45.264C63.3682 44.992 63.8842 44.856 64.4602 44.856C65.0522 44.856 65.5722 44.992 66.0202 45.264C66.4762 45.528 66.8282 45.896 67.0762 46.368C67.3322 46.84 67.4602 47.384 67.4602 48C67.4602 48.616 67.3322 49.16 67.0762 49.632C66.8282 50.104 66.4802 50.476 66.0322 50.748C65.5842 51.012 65.0682 51.144 64.4842 51.144ZM64.4842 50.256C64.8842 50.256 65.2322 50.16 65.5282 49.968C65.8242 49.776 66.0562 49.512 66.2242 49.176C66.4002 48.84 66.4882 48.448 66.4882 48C66.4882 47.552 66.4002 47.16 66.2242 46.824C66.0562 46.488 65.8202 46.224 65.5162 46.032C65.2122 45.84 64.8602 45.744 64.4602 45.744C64.0682 45.744 63.7202 45.84 63.4162 46.032C63.1202 46.224 62.8842 46.488 62.7082 46.824C62.5402 47.16 62.4562 47.552 62.4562 48C62.4562 48.44 62.5402 48.832 62.7082 49.176C62.8842 49.512 63.1242 49.776 63.4282 49.968C63.7402 50.16 64.0922 50.256 64.4842 50.256ZM68.7931 51V45H69.6931L69.7411 45.84C69.9251 45.52 70.1611 45.276 70.4491 45.108C70.7371 44.94 71.0731 44.856 71.4571 44.856C71.9371 44.856 72.3451 44.968 72.6811 45.192C73.0251 45.416 73.2731 45.756 73.4251 46.212C73.5931 45.772 73.8371 45.436 74.1571 45.204C74.4851 44.972 74.8731 44.856 75.3211 44.856C75.9931 44.856 76.5211 45.08 76.9051 45.528C77.2971 45.976 77.4891 46.656 77.4811 47.568V51H76.5211V47.928C76.5211 47.336 76.4571 46.884 76.3291 46.572C76.2091 46.26 76.0451 46.048 75.8371 45.936C75.6291 45.816 75.3891 45.756 75.1171 45.756C74.6451 45.756 74.2771 45.944 74.0131 46.32C73.7491 46.688 73.6171 47.212 73.6171 47.892V51H72.6571V47.928C72.6571 47.336 72.5931 46.884 72.4651 46.572C72.3451 46.26 72.1771 46.048 71.9611 45.936C71.7531 45.816 71.5131 45.756 71.2411 45.756C70.7771 45.756 70.4131 45.944 70.1491 46.32C69.8851 46.688 69.7531 47.212 69.7531 47.892V51H68.7931ZM79.0602 51V45H80.0202V51H79.0602ZM79.5522 43.608C79.3922 43.608 79.2522 43.548 79.1322 43.428C79.0122 43.308 78.9522 43.168 78.9522 43.008C78.9522 42.84 79.0122 42.7 79.1322 42.588C79.2522 42.468 79.3922 42.408 79.5522 42.408C79.7202 42.408 79.8602 42.468 79.9722 42.588C80.0922 42.7 80.1522 42.84 80.1522 43.008C80.1522 43.168 80.0922 43.308 79.9722 43.428C79.8602 43.548 79.7202 43.608 79.5522 43.608ZM81.7892 51V45H82.6892L82.7492 46.104V51H81.7892ZM86.0012 51V47.928H86.9612V51H86.0012ZM86.0012 47.928C86.0012 47.336 85.9332 46.884 85.7972 46.572C85.6612 46.26 85.4732 46.048 85.2332 45.936C84.9932 45.816 84.7212 45.756 84.4172 45.756C83.8892 45.756 83.4772 45.944 83.1812 46.32C82.8932 46.688 82.7492 47.212 82.7492 47.892H82.2812C82.2812 47.26 82.3732 46.716 82.5572 46.26C82.7412 45.804 83.0092 45.456 83.3612 45.216C83.7132 44.976 84.1372 44.856 84.6332 44.856C85.1052 44.856 85.5132 44.952 85.8572 45.144C86.2092 45.328 86.4812 45.624 86.6732 46.032C86.8732 46.44 86.9692 46.976 86.9612 47.64V47.928H86.0012ZM92.1766 51L92.1286 50.016V47.832C92.1286 47.36 92.0766 46.972 91.9726 46.668C91.8686 46.356 91.7046 46.12 91.4806 45.96C91.2566 45.8 90.9646 45.72 90.6046 45.72C90.2766 45.72 89.9926 45.788 89.7526 45.924C89.5206 46.052 89.3286 46.26 89.1766 46.548L88.3126 46.212C88.4646 45.932 88.6486 45.692 88.8646 45.492C89.0806 45.284 89.3326 45.128 89.6206 45.024C89.9086 44.912 90.2366 44.856 90.6046 44.856C91.1646 44.856 91.6246 44.968 91.9846 45.192C92.3526 45.408 92.6286 45.732 92.8126 46.164C92.9966 46.588 93.0846 47.116 93.0766 47.748L93.0646 51H92.1766ZM90.3766 51.144C89.6726 51.144 89.1206 50.984 88.7206 50.664C88.3286 50.336 88.1326 49.884 88.1326 49.308C88.1326 48.7 88.3326 48.236 88.7326 47.916C89.1406 47.588 89.7086 47.424 90.4366 47.424H92.1526V48.228H90.6526C90.0926 48.228 89.6926 48.32 89.4526 48.504C89.2206 48.688 89.1046 48.952 89.1046 49.296C89.1046 49.608 89.2206 49.856 89.4526 50.04C89.6846 50.216 90.0086 50.304 90.4246 50.304C90.7686 50.304 91.0686 50.232 91.3246 50.088C91.5806 49.936 91.7766 49.724 91.9126 49.452C92.0566 49.172 92.1286 48.844 92.1286 48.468H92.5366C92.5366 49.284 92.3526 49.936 91.9846 50.424C91.6166 50.904 91.0806 51.144 90.3766 51.144Z" fill="black"/>
<line x1="7" y1="62.7" x2="117" y2="62.7" stroke="#4F46E5" stroke-width="0.6"/>
<path d="M27 82L23.25 78.25L24.3 77.1625L26.25 79.1125V73H27.75V79.1125L29.7 77.1625L30.75 78.25L27 82ZM22.5 85C22.0875 85 21.7345 84.8533 21.441 84.5597C21.1475 84.2662 21.0005 83.913 21 83.5V81.25H22.5V83.5H31.5V81.25H33V83.5C33 83.9125 32.8533 84.2657 32.5597 84.5597C32.2662 84.8538 31.913 85.0005 31.5 85H22.5Z" fill="black"/>
<path d="M47.804 83.144C47.34 83.144 46.928 83.096 46.568 83C46.208 82.896 45.896 82.756 45.632 82.58C45.368 82.396 45.152 82.196 44.984 81.98C44.816 81.756 44.692 81.52 44.612 81.272L45.584 80.936C45.704 81.288 45.944 81.596 46.304 81.86C46.672 82.116 47.12 82.244 47.648 82.244C48.296 82.244 48.804 82.116 49.172 81.86C49.54 81.604 49.724 81.264 49.724 80.84C49.724 80.448 49.56 80.132 49.232 79.892C48.904 79.644 48.472 79.452 47.936 79.316L47.012 79.076C46.636 78.98 46.288 78.84 45.968 78.656C45.656 78.464 45.404 78.224 45.212 77.936C45.028 77.64 44.936 77.288 44.936 76.88C44.936 76.12 45.18 75.528 45.668 75.104C46.164 74.672 46.876 74.456 47.804 74.456C48.356 74.456 48.832 74.548 49.232 74.732C49.632 74.908 49.956 75.136 50.204 75.416C50.46 75.688 50.64 75.984 50.744 76.304L49.784 76.64C49.632 76.24 49.376 75.928 49.016 75.704C48.656 75.472 48.22 75.356 47.708 75.356C47.172 75.356 46.744 75.488 46.424 75.752C46.112 76.008 45.956 76.36 45.956 76.808C45.956 77.192 46.08 77.488 46.328 77.696C46.576 77.896 46.9 78.044 47.3 78.14L48.224 78.368C49.04 78.56 49.664 78.88 50.096 79.328C50.536 79.768 50.756 80.244 50.756 80.756C50.756 81.196 50.644 81.6 50.42 81.968C50.196 82.328 49.864 82.616 49.424 82.832C48.992 83.04 48.452 83.144 47.804 83.144ZM54.8871 83.144C54.2951 83.144 53.7711 83.012 53.3151 82.748C52.8591 82.476 52.5031 82.104 52.2471 81.632C51.9911 81.16 51.8631 80.616 51.8631 80C51.8631 79.384 51.9871 78.84 52.2351 78.368C52.4911 77.896 52.8471 77.528 53.3031 77.264C53.7591 76.992 54.2791 76.856 54.8631 76.856C55.4391 76.856 55.9551 76.988 56.4111 77.252C56.8671 77.516 57.2151 77.888 57.4551 78.368L56.5791 78.764C56.4191 78.444 56.1871 78.196 55.8831 78.02C55.5791 77.836 55.2311 77.744 54.8391 77.744C54.4471 77.744 54.0991 77.84 53.7951 78.032C53.4991 78.224 53.2631 78.492 53.0871 78.836C52.9191 79.172 52.8351 79.56 52.8351 80C52.8351 80.44 52.9191 80.832 53.0871 81.176C53.2631 81.512 53.5031 81.776 53.8071 81.968C54.1191 82.16 54.4711 82.256 54.8631 82.256C55.2551 82.256 55.6031 82.156 55.9071 81.956C56.2191 81.756 56.4551 81.476 56.6151 81.116L57.4911 81.512C57.2511 82.024 56.9031 82.424 56.4471 82.712C55.9911 83 55.4711 83.144 54.8871 83.144ZM62.3993 83L62.3513 82.016V79.832C62.3513 79.36 62.2993 78.972 62.1953 78.668C62.0913 78.356 61.9273 78.12 61.7033 77.96C61.4793 77.8 61.1873 77.72 60.8273 77.72C60.4993 77.72 60.2153 77.788 59.9753 77.924C59.7433 78.052 59.5513 78.26 59.3993 78.548L58.5353 78.212C58.6873 77.932 58.8713 77.692 59.0873 77.492C59.3033 77.284 59.5553 77.128 59.8433 77.024C60.1313 76.912 60.4593 76.856 60.8273 76.856C61.3873 76.856 61.8473 76.968 62.2073 77.192C62.5753 77.408 62.8513 77.732 63.0353 78.164C63.2193 78.588 63.3073 79.116 63.2993 79.748L63.2873 83H62.3993ZM60.5993 83.144C59.8953 83.144 59.3433 82.984 58.9433 82.664C58.5513 82.336 58.3553 81.884 58.3553 81.308C58.3553 80.7 58.5553 80.236 58.9553 79.916C59.3633 79.588 59.9313 79.424 60.6593 79.424H62.3753V80.228H60.8753C60.3153 80.228 59.9153 80.32 59.6753 80.504C59.4433 80.688 59.3273 80.952 59.3273 81.296C59.3273 81.608 59.4433 81.856 59.6753 82.04C59.9073 82.216 60.2313 82.304 60.6473 82.304C60.9913 82.304 61.2913 82.232 61.5473 82.088C61.8033 81.936 61.9993 81.724 62.1353 81.452C62.2793 81.172 62.3513 80.844 62.3513 80.468H62.7593C62.7593 81.284 62.5753 81.936 62.2073 82.424C61.8393 82.904 61.3033 83.144 60.5993 83.144ZM65.3485 79.748C65.3485 79.1 65.4725 78.576 65.7205 78.176C65.9685 77.768 66.2845 77.468 66.6685 77.276C67.0605 77.076 67.4725 76.976 67.9045 76.976V77.876C67.5525 77.876 67.2125 77.936 66.8845 78.056C66.5645 78.168 66.3005 78.356 66.0925 78.62C65.8845 78.884 65.7805 79.244 65.7805 79.7L65.3485 79.748ZM64.8205 83V77H65.7805V83H64.8205ZM68.9352 83V77H69.8952V83H68.9352ZM69.4272 75.608C69.2672 75.608 69.1272 75.548 69.0072 75.428C68.8872 75.308 68.8272 75.168 68.8272 75.008C68.8272 74.84 68.8872 74.7 69.0072 74.588C69.1272 74.468 69.2672 74.408 69.4272 74.408C69.5952 74.408 69.7352 74.468 69.8472 74.588C69.9672 74.7 70.0272 74.84 70.0272 75.008C70.0272 75.168 69.9672 75.308 69.8472 75.428C69.7352 75.548 69.5952 75.608 69.4272 75.608ZM74.3402 83.144C73.7482 83.144 73.2242 83.012 72.7682 82.748C72.3122 82.476 71.9562 82.104 71.7002 81.632C71.4442 81.16 71.3162 80.616 71.3162 80C71.3162 79.384 71.4402 78.84 71.6882 78.368C71.9442 77.896 72.3002 77.528 72.7562 77.264C73.2122 76.992 73.7322 76.856 74.3162 76.856C74.8922 76.856 75.4082 76.988 75.8642 77.252C76.3202 77.516 76.6682 77.888 76.9082 78.368L76.0322 78.764C75.8722 78.444 75.6402 78.196 75.3362 78.02C75.0322 77.836 74.6842 77.744 74.2922 77.744C73.9002 77.744 73.5522 77.84 73.2482 78.032C72.9522 78.224 72.7162 78.492 72.5402 78.836C72.3722 79.172 72.2882 79.56 72.2882 80C72.2882 80.44 72.3722 80.832 72.5402 81.176C72.7162 81.512 72.9562 81.776 73.2602 81.968C73.5722 82.16 73.9242 82.256 74.3162 82.256C74.7082 82.256 75.0562 82.156 75.3602 81.956C75.6722 81.756 75.9082 81.476 76.0682 81.116L76.9442 81.512C76.7042 82.024 76.3562 82.424 75.9002 82.712C75.4442 83 74.9242 83.144 74.3402 83.144ZM81.8524 83L81.8044 82.016V79.832C81.8044 79.36 81.7524 78.972 81.6484 78.668C81.5444 78.356 81.3804 78.12 81.1564 77.96C80.9324 77.8 80.6404 77.72 80.2804 77.72C79.9524 77.72 79.6684 77.788 79.4284 77.924C79.1964 78.052 79.0044 78.26 78.8524 78.548L77.9884 78.212C78.1404 77.932 78.3244 77.692 78.5404 77.492C78.7564 77.284 79.0084 77.128 79.2964 77.024C79.5844 76.912 79.9124 76.856 80.2804 76.856C80.8404 76.856 81.3004 76.968 81.6604 77.192C82.0284 77.408 82.3044 77.732 82.4884 78.164C82.6724 78.588 82.7604 79.116 82.7524 79.748L82.7404 83H81.8524ZM80.0524 83.144C79.3484 83.144 78.7964 82.984 78.3964 82.664C78.0044 82.336 77.8084 81.884 77.8084 81.308C77.8084 80.7 78.0084 80.236 78.4084 79.916C78.8164 79.588 79.3844 79.424 80.1124 79.424H81.8284V80.228H80.3284C79.7684 80.228 79.3684 80.32 79.1284 80.504C78.8964 80.688 78.7804 80.952 78.7804 81.296C78.7804 81.608 78.8964 81.856 79.1284 82.04C79.3604 82.216 79.6844 82.304 80.1004 82.304C80.4444 82.304 80.7444 82.232 81.0004 82.088C81.2564 81.936 81.4524 81.724 81.5884 81.452C81.7324 81.172 81.8044 80.844 81.8044 80.468H82.2124C82.2124 81.284 82.0284 81.936 81.6604 82.424C81.2924 82.904 80.7564 83.144 80.0524 83.144Z" fill="black"/>
<line x1="7" y1="94.7" x2="117" y2="94.7" stroke="#4F46E5" stroke-width="0.6"/>
<path d="M28.71 103.5C29.0248 103.5 29.3316 103.599 29.587 103.783C29.8423 103.967 30.0333 104.227 30.1327 104.526L30.54 105.75H33C33.1989 105.75 33.3897 105.829 33.5303 105.97C33.671 106.11 33.75 106.301 33.75 106.5C33.75 106.699 33.671 106.89 33.5303 107.03C33.3897 107.171 33.1989 107.25 33 107.25L32.9977 107.303L32.3475 116.411C32.3069 116.978 32.0529 117.509 31.6365 117.897C31.2202 118.284 30.6724 118.5 30.1035 118.5H23.8965C23.3276 118.5 22.7798 118.284 22.3635 117.897C21.9471 117.509 21.6931 116.978 21.6525 116.411L21.0022 107.303L21 107.25C20.8011 107.25 20.6103 107.171 20.4697 107.03C20.329 106.89 20.25 106.699 20.25 106.5C20.25 106.301 20.329 106.11 20.4697 105.97C20.6103 105.829 20.8011 105.75 21 105.75H23.46L23.8672 104.526C23.9668 104.227 24.1578 103.967 24.4133 103.783C24.6688 103.599 24.9758 103.5 25.2907 103.5H28.71ZM31.4977 107.25H22.5022L23.1487 116.303C23.1622 116.492 23.2468 116.669 23.3856 116.799C23.5243 116.928 23.7069 117 23.8965 117H30.1035C30.2931 117 30.4757 116.928 30.6144 116.799C30.7532 116.669 30.8378 116.492 30.8512 116.303L31.4977 107.25ZM25.5 109.5C25.6837 109.5 25.861 109.567 25.9983 109.69C26.1356 109.812 26.2233 109.98 26.2448 110.162L26.25 110.25V114C26.2498 114.191 26.1766 114.375 26.0454 114.514C25.9141 114.653 25.7348 114.737 25.544 114.748C25.3531 114.759 25.1652 114.697 25.0186 114.574C24.872 114.452 24.7778 114.278 24.7552 114.088L24.75 114V110.25C24.75 110.051 24.829 109.86 24.9697 109.72C25.1103 109.579 25.3011 109.5 25.5 109.5ZM28.5 109.5C28.6989 109.5 28.8897 109.579 29.0303 109.72C29.171 109.86 29.25 110.051 29.25 110.25V114C29.25 114.199 29.171 114.39 29.0303 114.53C28.8897 114.671 28.6989 114.75 28.5 114.75C28.3011 114.75 28.1103 114.671 27.9697 114.53C27.829 114.39 27.75 114.199 27.75 114V110.25C27.75 110.051 27.829 109.86 27.9697 109.72C28.1103 109.579 28.3011 109.5 28.5 109.5ZM28.71 105H25.29L25.0402 105.75H28.9598L28.71 105Z" fill="#EF4444"/>
<path d="M45.116 115V106.6H50.084V107.524H46.136V110.236H49.736V111.148H46.136V114.076H50.108V115H45.116ZM51.9416 115V106.6H52.9016V115H51.9416ZM54.6383 115V109H55.5983V115H54.6383ZM55.1303 107.608C54.9703 107.608 54.8303 107.548 54.7103 107.428C54.5903 107.308 54.5303 107.168 54.5303 107.008C54.5303 106.84 54.5903 106.7 54.7103 106.588C54.8303 106.468 54.9703 106.408 55.1303 106.408C55.2983 106.408 55.4383 106.468 55.5503 106.588C55.6703 106.7 55.7303 106.84 55.7303 107.008C55.7303 107.168 55.6703 107.308 55.5503 107.428C55.4383 107.548 55.2983 107.608 55.1303 107.608ZM57.3673 115V109H58.2673L58.3153 109.84C58.4993 109.52 58.7353 109.276 59.0233 109.108C59.3113 108.94 59.6473 108.856 60.0313 108.856C60.5113 108.856 60.9193 108.968 61.2553 109.192C61.5993 109.416 61.8473 109.756 61.9993 110.212C62.1673 109.772 62.4113 109.436 62.7313 109.204C63.0593 108.972 63.4473 108.856 63.8953 108.856C64.5673 108.856 65.0953 109.08 65.4793 109.528C65.8713 109.976 66.0633 110.656 66.0553 111.568V115H65.0953V111.928C65.0953 111.336 65.0313 110.884 64.9033 110.572C64.7833 110.26 64.6193 110.048 64.4113 109.936C64.2033 109.816 63.9633 109.756 63.6913 109.756C63.2193 109.756 62.8513 109.944 62.5873 110.32C62.3233 110.688 62.1913 111.212 62.1913 111.892V115H61.2313V111.928C61.2313 111.336 61.1673 110.884 61.0393 110.572C60.9193 110.26 60.7513 110.048 60.5353 109.936C60.3273 109.816 60.0873 109.756 59.8153 109.756C59.3513 109.756 58.9873 109.944 58.7233 110.32C58.4593 110.688 58.3273 111.212 58.3273 111.892V115H57.3673ZM67.6344 115V109H68.5944V115H67.6344ZM68.1264 107.608C67.9664 107.608 67.8264 107.548 67.7064 107.428C67.5864 107.308 67.5264 107.168 67.5264 107.008C67.5264 106.84 67.5864 106.7 67.7064 106.588C67.8264 106.468 67.9664 106.408 68.1264 106.408C68.2944 106.408 68.4344 106.468 68.5464 106.588C68.6664 106.7 68.7264 106.84 68.7264 107.008C68.7264 107.168 68.6664 107.308 68.5464 107.428C68.4344 107.548 68.2944 107.608 68.1264 107.608ZM70.3634 115V109H71.2634L71.3234 110.104V115H70.3634ZM74.5754 115V111.928H75.5354V115H74.5754ZM74.5754 111.928C74.5754 111.336 74.5074 110.884 74.3714 110.572C74.2354 110.26 74.0474 110.048 73.8074 109.936C73.5674 109.816 73.2954 109.756 72.9914 109.756C72.4634 109.756 72.0514 109.944 71.7554 110.32C71.4674 110.688 71.3234 111.212 71.3234 111.892H70.8554C70.8554 111.26 70.9474 110.716 71.1314 110.26C71.3154 109.804 71.5834 109.456 71.9354 109.216C72.2874 108.976 72.7114 108.856 73.2074 108.856C73.6794 108.856 74.0874 108.952 74.4314 109.144C74.7834 109.328 75.0554 109.624 75.2474 110.032C75.4474 110.44 75.5434 110.976 75.5354 111.64V111.928H74.5754ZM80.7508 115L80.7028 114.016V111.832C80.7028 111.36 80.6508 110.972 80.5468 110.668C80.4428 110.356 80.2788 110.12 80.0548 109.96C79.8308 109.8 79.5388 109.72 79.1788 109.72C78.8508 109.72 78.5668 109.788 78.3268 109.924C78.0948 110.052 77.9028 110.26 77.7508 110.548L76.8868 110.212C77.0388 109.932 77.2228 109.692 77.4388 109.492C77.6548 109.284 77.9068 109.128 78.1948 109.024C78.4828 108.912 78.8108 108.856 79.1788 108.856C79.7388 108.856 80.1988 108.968 80.5588 109.192C80.9268 109.408 81.2028 109.732 81.3868 110.164C81.5708 110.588 81.6588 111.116 81.6508 111.748L81.6388 115H80.7508ZM78.9508 115.144C78.2468 115.144 77.6948 114.984 77.2948 114.664C76.9028 114.336 76.7068 113.884 76.7068 113.308C76.7068 112.7 76.9068 112.236 77.3068 111.916C77.7148 111.588 78.2828 111.424 79.0108 111.424H80.7268V112.228H79.2268C78.6668 112.228 78.2668 112.32 78.0268 112.504C77.7948 112.688 77.6788 112.952 77.6788 113.296C77.6788 113.608 77.7948 113.856 78.0268 114.04C78.2588 114.216 78.5828 114.304 78.9988 114.304C79.3428 114.304 79.6428 114.232 79.8988 114.088C80.1548 113.936 80.3508 113.724 80.4868 113.452C80.6308 113.172 80.7028 112.844 80.7028 112.468H81.1108C81.1108 113.284 80.9268 113.936 80.5588 114.424C80.1908 114.904 79.6548 115.144 78.9508 115.144Z" fill="black"/>
</g>
<path d="M95.4936 24L100.241 31.02H90.7462L95.4936 24Z" fill="white"/>
<defs>
<filter id="filter0_d_651_3821" x="3" y="27" width="118" height="104" filterUnits="userSpaceOnUse" color-interpolation-filters="sRGB">
<feFlood flood-opacity="0" result="BackgroundImageFix"/>
<feColorMatrix in="SourceAlpha" type="matrix" values="0 0 0 0 0 0 0 0 0 0 0 0 0 0 0 0 0 0 127 0" result="hardAlpha"/>
<feOffset/>
<feGaussianBlur stdDeviation="2"/>
<feComposite in2="hardAlpha" operator="out"/>
<feColorMatrix type="matrix" values="0 0 0 0 0 0 0 0 0 0 0 0 0 0 0 0 0 0 0.25 0"/>
<feBlend mode="normal" in2="BackgroundImageFix" result="effect1_dropShadow_651_3821"/>
<feBlend mode="normal" in="SourceGraphic" in2="effect1_dropShadow_651_3821" result="shape"/>
</filter>
</defs>
</svg>